<?xml version="1.0" encoding="utf-8"?>
<!-- Generator: Adobe Illustrator 16.0.2, SVG Export Plug-In . SVG Version: 6.00 Build 0)  -->
<!DOCTYPE svg PUBLIC "-//W3C//DTD SVG 1.1//EN" "http://www.w3.org/Graphics/SVG/1.1/DTD/svg11.dtd">
<svg version="1.1" id="Layer_1" xmlns="http://www.w3.org/2000/svg" xmlns:xlink="http://www.w3.org/1999/xlink" x="0px" y="0px"
	 width="50px" height="50px" viewBox="0 0 50 50" enable-background="new 0 0 50 50" xml:space="preserve">
<g>
	<path d="M3.673,31.665l4.034,5.263c0.891,1.162,2.275,1.642,3.711,1.45l-4.68,4.95c0,0-0.405,1.584,2.017,2.631
		c2.423,1.048,4.882-4.632,4.882-4.632l-1.834-3.016c0.15-0.031,0.301-0.069,0.453-0.12l5.587,4.625
		c3.182,3.217,6.105,2.228,8.553-0.095l5.45-5.172l0.042-0.04l5.449-5.173c2.448-2.322,3.788-5.379,1.434-9.383l-3.222-6.869
		c0.068-0.158,0.126-0.318,0.177-0.478l2.387,2.49c0,0,5.429-1.804,4.881-4.632c-0.547-2.827-2.017-2.632-2.017-2.632l-5.132,4.362
		c0.398-1.548,0.189-3.145-0.701-4.307L31.11,5.626c-1.004-1.31-2.628-1.753-4.258-1.351L24.14,0.738
		c-0.917-1.197-2.987-0.907-4.627,0.648c-1.637,1.555-2.223,3.786-1.306,4.982l2.255,2.943l-5.898,5.597l-0.042,0.04l-5.899,5.598
		l-2.255-2.943c-0.918-1.197-2.99-0.905-4.627,0.649c-1.64,1.557-2.223,3.785-1.306,4.981l2.711,3.538
		C2.533,28.499,2.669,30.354,3.673,31.665z M28.936,9.455l2.171,2.833l-5.354,5.082l-2.171-2.833L28.936,9.455z M25.195,28.874
		l0.042-0.041l9.828-9.327l2.515,5.63l0.039,0.078c0.748,1.377,0.309,3.694-0.921,4.861l-6.082,5.772l-0.042,0.04l-6.083,5.771
		c-1.229,1.167-3.355,1.283-4.459,0.245l-0.063-0.054l-4.6-3.651L25.195,28.874z M12.77,24.797l2.171,2.833l-5.354,5.082
		l-2.171-2.833L12.77,24.797z"/>
	<rect x="0.212" y="46.622" width="49.788" height="3.378"/>
	<polygon points="37.854,34.14 38.105,35.442 40.683,34.827 38.704,37.462 40.711,39.741 37.994,39.669 37.112,42.926 
		35.443,40.736 32.729,41.782 34.313,37.857 33.222,37.312 30.503,44.047 35.061,42.293 37.623,45.655 38.876,41.024 43.627,41.15 
		40.316,37.391 43.829,32.715 	"/>
</g>
</svg>
