<?xml version="1.0" encoding="utf-8"?>
<!-- Generator: Adobe Illustrator 16.0.2, SVG Export Plug-In . SVG Version: 6.00 Build 0)  -->
<!DOCTYPE svg PUBLIC "-//W3C//DTD SVG 1.1//EN" "http://www.w3.org/Graphics/SVG/1.1/DTD/svg11.dtd">
<svg version="1.1" id="Capa_1" xmlns="http://www.w3.org/2000/svg" xmlns:xlink="http://www.w3.org/1999/xlink" x="0px" y="0px"
	 width="50px" height="50px" viewBox="0 0 50 50" enable-background="new 0 0 50 50" xml:space="preserve">
<path d="M48.5,23h-1.073C46.486,11.867,37.302,3.089,26,2.785V1.5C26,0.672,25.328,0,24.5,0S23,0.672,23,1.5v1.401
	C12.532,4.03,4.257,12.462,3.366,23H1.5C0.672,23,0,23.672,0,24.5S0.672,26,1.5,26h1.808C3.848,36.896,12.275,45.716,23,46.872V47.5
	c0,0.828,0.672,1.5,1.5,1.5s1.5-0.672,1.5-1.5v-0.512C37.563,46.677,46.915,37.497,47.484,26H48.5c0.828,0,1.5-0.672,1.5-1.5
	S49.328,23,48.5,23z M26,42.548V40.5c0-0.828-0.672-1.5-1.5-1.5S23,39.672,23,40.5v1.898C14.727,41.275,8.286,34.448,7.759,26H8.5
	c0.828,0,1.5-0.672,1.5-1.5S9.328,23,8.5,23H7.807C8.665,14.909,14.98,8.462,23,7.373V8.5c0,0.828,0.672,1.5,1.5,1.5
	S26,9.328,26,8.5V7.223c8.857,0.3,16.064,7.092,16.986,15.777H41.5c-0.828,0-1.5,0.672-1.5,1.5s0.672,1.5,1.5,1.5h1.533
	C42.468,35.049,35.117,42.24,26,42.548z"/>
</svg>
