<?xml version="1.0" encoding="utf-8"?>
<!-- Generator: Adobe Illustrator 16.0.2, SVG Export Plug-In . SVG Version: 6.00 Build 0)  -->
<!DOCTYPE svg PUBLIC "-//W3C//DTD SVG 1.1//EN" "http://www.w3.org/Graphics/SVG/1.1/DTD/svg11.dtd">
<svg version="1.1" id="Layer_1" xmlns="http://www.w3.org/2000/svg" xmlns:xlink="http://www.w3.org/1999/xlink" x="0px" y="0px"
	 width="50px" height="50px" viewBox="-0.788 -0.656 50 50" enable-background="new -0.788 -0.656 50 50" xml:space="preserve">
<path d="M48.923,33.236l-0.455-1.314c-0.252-0.726-1.049-1.314-1.783-1.314h-1.547c-0.965-2.713-1.973-5.124-2.3-5.865
	c-0.607-1.365-2.547-1.654-3.615-1.955c0,0-1.784-0.541-7.734-0.541s-7.733,0.541-7.733,0.541c-1.25,0.421-2.988,0.689-3.678,2.014
	c-0.276,0.529-1.294,3.007-2.278,5.805h-1.531c-0.733,0-1.532,0.588-1.783,1.314l-0.455,1.314c-0.252,0.726,0.139,1.573,0.874,1.573
	h1.53c-0.407,1.179-0.682,1.725-0.682,1.725c-0.114,0.193-0.195,1.083-0.195,1.321v9.832c0,0.727,0.594,1.313,1.326,1.313h3.69
	c0.733,0,1.328-0.587,1.328-1.313v-1.84h19.177v1.84c0,0.726,0.594,1.313,1.328,1.313h3.69c0.732,0,1.329-0.587,1.329-1.313v-9.832
	c0-0.238-0.082-1.128-0.196-1.321c0,0-0.278-0.545-0.694-1.725h1.516C48.784,34.809,49.175,33.962,48.923,33.236z M23.654,41.12
	H21.89c-1.577,0-3.153-0.229-3.153-1.314v-1.314c0-1.269,0.679-1.313,1.415-1.313c0.715,0,2.134,0.656,3.067,1.106
	c1.019,0.493,2.158,0.902,2.158,1.725C25.376,40.769,24.983,41.12,23.654,41.12z M19.969,32.013
	c0.932-3.659,1.946-5.032,2.168-5.607c0.179-0.42,0.353-1.713,9.35-1.713c8.997,0,9.209,1.479,9.233,1.495
	c0.277,0.784,1.377,2.451,2.259,5.825c0,0-3.801,1.223-11.492,1.223C23.797,33.236,19.969,32.013,19.969,32.013z M44.241,39.805
	c0,1.084-1.577,1.314-3.154,1.314h-1.764c-1.329,0-1.722-0.349-1.722-1.107c0-0.822,1.137-1.232,2.157-1.725
	c0.934-0.452,2.352-1.108,3.067-1.108c0.733,0,1.415,0.047,1.415,1.314L44.241,39.805L44.241,39.805z M16.296,28.497
	c0.789-2.142,1.57-4.053,1.884-4.659c0.987-1.894,2.961-2.473,4.266-2.858c0.218-0.063,0.427-0.126,0.626-0.192
	c0.408-0.127,2.451-0.655,8.418-0.655c0.049,0,0.088,0.003,0.134,0.003c-0.017-0.045-0.028-0.076-0.045-0.123h1.516
	c0.734,0,1.124-0.846,0.875-1.573l-0.455-1.311c-0.252-0.726-1.049-1.314-1.783-1.314h-1.547c-0.965-2.714-1.973-5.125-2.3-5.865
	c-0.607-1.366-2.548-1.654-3.616-1.954c0,0-1.783-0.541-7.734-0.541c-5.949,0-7.732,0.541-7.732,0.541
	c-1.25,0.42-2.986,0.688-3.678,2.014c-0.274,0.53-1.295,3.007-2.276,5.805H1.314c-0.733,0-1.532,0.587-1.783,1.314l-0.455,1.312
	c-0.252,0.726,0.139,1.573,0.874,1.573h1.529c-0.406,1.179-0.681,1.725-0.681,1.725c-0.113,0.192-0.194,1.082-0.194,1.321v9.832
	c0,0.727,0.594,1.314,1.326,1.314h3.69c0.732,0,1.328-0.588,1.328-1.314v-1.841h5.617c0.608-1.483,2.118-2.555,3.704-2.555
	L16.296,28.497L16.296,28.497z M8.7,26.326H6.938c-1.577,0-3.153-0.229-3.153-1.314v-1.315c0-1.268,0.679-1.314,1.412-1.314
	c0.715,0,2.134,0.657,3.067,1.107c1.019,0.492,2.158,0.903,2.158,1.724C10.424,25.974,10.03,26.326,8.7,26.326z M5.018,17.219
	c0.93-3.658,1.944-5.032,2.169-5.607C7.366,11.193,7.539,9.9,16.536,9.9c8.998,0,9.209,1.477,9.232,1.494
	c0.278,0.784,1.377,2.452,2.26,5.825c0,0-3.802,1.223-11.492,1.223C8.846,18.442,5.018,17.219,5.018,17.219z M22.14,3.157
	c0.179-0.418,0.352-1.712,9.35-1.712c8.997,0,9.208,1.477,9.232,1.495C41,3.724,42.101,5.391,42.981,8.765
	c0,0-3.801,1.224-11.491,1.224c-0.455,0-0.849-0.017-1.279-0.026c0.36,0.864,0.892,2.178,1.477,3.739h0.047
	c1.654,0,3.253,1.154,3.802,2.744l0.455,1.312c0.289,0.833,0.24,1.725-0.102,2.502c2.621,0.162,3.717,0.438,3.958,0.511l0.397,0.102
	c1.35,0.338,3.608,0.905,4.549,3.024c0.139,0.312,0.421,0.979,0.776,1.858h0.525c0.732,0,1.328-0.587,1.328-1.313v-9.835
	c0-0.238-0.083-1.128-0.195-1.321c0,0-0.279-0.545-0.694-1.725h1.516c0.734,0,1.124-0.846,0.874-1.573l-0.457-1.312
	c-0.252-0.725-1.048-1.314-1.783-1.314h-1.546c-0.966-2.714-1.972-5.125-2.3-5.865c-0.606-1.366-2.548-1.654-3.616-1.955
	c0,0-1.783-0.541-7.733-0.541s-7.732,0.541-7.732,0.541c-1.25,0.42-2.988,0.688-3.679,2.014c-0.205,0.399-0.833,1.897-1.55,3.806
	c0.979,0.021,1.788,0.062,2.508,0.107C21.565,4.172,22.004,3.51,22.14,3.157z M44.241,15.242v1.314c0,1.084-1.577,1.314-3.154,1.314
	h-1.764c-1.329,0-1.722-0.349-1.722-1.107c0-0.821,1.14-1.233,2.157-1.726c0.934-0.452,2.352-1.107,3.067-1.107
	C43.559,13.93,44.241,13.977,44.241,15.242z"/>
</svg>
